<svg aria-hidden="true" style="width:0;height:0;position:absolute;overflow:hidden" xmlns="http://www.w3.org/2000/svg"><defs><symbol id="icon-deliv" viewBox="0 0 32 32"><path fill="#7eb101" style="fill:var(--color1,#7eb101)" d="m7.233 13.633 3.534 1.5c.4-.8.827-1.588 1.283-2.366s.939-1.522 1.45-2.234L10.867 10l-3.634 3.633zm5.134 2.7 4.433 4.434a25.986 25.986 0 0 0 3.663-2.027l-.096.06c1.11-.733 2.01-1.444 2.7-2.133 1.8-1.8 3.122-3.645 3.966-5.534s1.3-4.022 1.367-6.4c-2.378.067-4.511.523-6.4 1.367s-3.733 2.167-5.533 3.967c-.69.689-1.4 1.589-2.134 2.7a25.405 25.405 0 0 0-1.899 3.404l-.067.162zm7.633-3.2c-.444-.444-.667-.994-.667-1.65 0-.655.223-1.205.667-1.65s.994-.666 1.65-.666 1.206.222 1.65.666c.444.445.667.995.667 1.65s-.223 1.206-.667 1.65c-.444.445-.994.667-1.65.667s-1.206-.222-1.65-.667zM19.5 25.9l3.633-3.633-.533-2.634c-.711.512-1.456.995-2.233 1.45A40.49 40.49 0 0 1 18 22.367l1.5 3.533zM30.367 2.767c.2 3.022-.178 5.777-1.134 8.266-.955 2.49-2.533 4.834-4.733 7.034l-.067.066-.066.067.733 3.667c.067.333.05.655-.05.966-.1.312-.272.59-.517.834l-5.7 5.733L16 22.8l-5.667-5.667-6.6-2.833 5.734-5.7c.244-.244.522-.417.833-.517s.633-.116.967-.05l3.666.734a.247.247 0 0 1 .066-.049L15 8.717a.26.26 0 0 0 .067-.05c2.2-2.2 4.544-3.784 7.033-4.75s5.244-1.35 8.267-1.15zm-24.4 18.4c.777-.778 1.727-1.173 2.85-1.184 1.122-.01 2.072.373 2.85 1.15.777.778 1.16 1.728 1.15 2.85-.011 1.123-.406 2.073-1.184 2.85-.577.578-1.472 1.056-2.683 1.434S5.922 29 3.5 29.333c.333-2.422.683-4.244 1.05-5.466s.839-2.123 1.417-2.7zm1.4 1.433c-.311.333-.59.856-.834 1.567S6.078 25.789 5.9 26.9c1.111-.178 2.022-.389 2.733-.633.711-.245 1.234-.523 1.567-.834.422-.377.639-.85.65-1.416l.001-.061a2.02 2.02 0 0 0-.584-1.423 2.021 2.021 0 0 0-1.423-.584l-.064.001h.003a1.87 1.87 0 0 0-1.414.648l-.002.002z"/></symbol><symbol id="icon-order" viewBox="0 0 32 32"><path fill="#7eb101" style="fill:var(--color1,#7eb101)" d="M15.5 1.333c2.023 0 3.75.706 5.184 2.117 1.433 1.411 2.15 3.128 2.15 5.15a7.34 7.34 0 0 1-.75 3.267 7.432 7.432 0 0 1-2.1 2.588l-.017.012h-1.133V12.8a5.181 5.181 0 0 0 1.47-1.836l.013-.031a5.346 5.346 0 0 0 .517-2.31v-.024.001c0-1.467-.523-2.711-1.567-3.733s-2.3-1.534-3.767-1.534c-1.466 0-2.722.511-3.766 1.534S10.167 7.133 10.167 8.6c0 .822.172 1.6.517 2.333a5.188 5.188 0 0 0 1.472 1.859l.011.008v2.4a7.308 7.308 0 0 1-2.915-2.701l-.018-.032a7.266 7.266 0 0 1-1.067-3.812v-.058.003c0-2.022.717-3.739 2.15-5.15s3.161-2.117 5.183-2.117zm-1.266 28a2.66 2.66 0 0 1-1.067-.216 2.764 2.764 0 0 1-.867-.584l-6.866-6.866L7.3 19.733c.311-.31.661-.55 1.05-.716a1.819 1.819 0 0 1 1.23-.081l-.013-.003 2.6.6V8.667c0-.934.322-1.723.967-2.367.644-.644 1.433-.967 2.366-.967.934 0 1.723.323 2.367.967s.967 1.433.967 2.367V14.4h.866c.111 0 .211.022.3.067s.19.088.3.133l4.934 2.4c.533.244.927.639 1.183 1.183.255.545.328 1.106.217 1.684l-1.2 7.266a2.518 2.518 0 0 1-.929 1.58l-.005.004a2.68 2.68 0 0 1-1.714.616h-8.552zm-.267-2h9.367l1.433-8.3-6.1-3.033h-1.833V8.667c0-.4-.123-.723-.367-.967s-.567-.367-.967-.367-.722.123-.966.367c-.245.244-.367.567-.367.967v13.3l-5.133-1.1-.767.766 5.7 5.7zm9.367 0z"/></symbol><symbol id="icon-arrow-left" viewBox="0 0 18 32"><path d="M17.653 15.035 2.791.875c-.239-.228-.563-.368-.92-.368S1.19.647.95.876h.001L.935.892A1.224 1.224 0 0 0 .934 2.67l13.995 13.333L.934 29.331a1.224 1.224 0 0 0-.001 1.779h.001l.016.016c.239.228.563.368.92.368s.681-.14.921-.369H2.79l14.862-14.16c.255-.243.413-.586.413-.965s-.158-.722-.413-.965z"/></symbol><symbol id="icon-arrow-right" viewBox="0 0 18 32"><path d="m.48 16.965 14.862 14.16c.239.228.563.368.92.368s.681-.14.921-.369h-.001l.016-.016a1.223 1.223 0 0 0 0-1.779h-.001L3.202 15.996 17.197 2.669a1.223 1.223 0 0 0 0-1.779h-.001L17.18.874c-.239-.228-.563-.368-.92-.368s-.681.14-.921.369h.001L.478 15.035c-.255.243-.413.586-.413.965s.158.722.413.965h.001z"/></symbol><symbol id="icon-logo" viewBox="0 0 44 32"><path fill="#ffe553" style="fill:var(--color2,#ffe553)" d="M16.496 6.456c1.013-1.983 3.846-1.983 4.859 0l1.283 2.51a2.737 2.737 0 0 0 1.986 1.45l.016.002 2.78.442c2.202.35 3.079 3.049 1.502 4.624l-1.985 1.984a2.72 2.72 0 0 0-.763 2.372l-.002-.016.437 2.772c.348 2.2-1.945 3.868-3.931 2.859l-2.517-1.279c-.36-.186-.785-.296-1.236-.296s-.876.109-1.251.303l.015-.007-2.517 1.279c-1.986 1.008-4.279-.659-3.932-2.859l.438-2.772a2.717 2.717 0 0 0-.765-2.356l-1.984-1.983c-1.577-1.576-.7-4.275 1.502-4.625l2.78-.442a2.736 2.736 0 0 0 1.994-1.438l.007-.015 1.283-2.51z"/><path fill="#2c2c2c" style="fill:var(--color3,#2c2c2c)" d="m3.476 20.533-.022.005a76.868 76.868 0 0 0-.013 1.932c0 .157-.003.285-.01.384l.001.336v.005c0 .103-.007.204-.02.303l.001-.012-.019.207c-.014.13-.043.2-.085.21-.092.022-.236-.049-.432-.212-.198-.171-.311-.319-.341-.447s-.038-1.06-.024-2.798c.021-1.739-.026-2.884-.141-3.432a.421.421 0 0 1 .014-.275l-.001.003c.036-.166.22-.321.551-.467.339-.147.845-.301 1.518-.459.68-.161 1.219-.251 1.619-.27.406-.021.624.031.654.159.02.085-.026.159-.138.223a4.95 4.95 0 0 1-.265.145l-.033.015c-.088.036-.205.082-.348.138-.327.105-.461.152-.595.201l.19-.061c-.125.038-.289.091-.489.161a22.37 22.37 0 0 0-.537.195c-.166.054-.391.133-.673.237s-.464.169-.548.196a.32.32 0 0 1 .033.093c.078.333.122 1.13.129 2.392a10.81 10.81 0 0 0 1.483-.389l-.077.023c.499-.163.806-.257.92-.284.269-.063.417-.039.444.075.052.22-.212.476-.793.77a8.65 8.65 0 0 1-1.955.696zm6.935-1.951a2.01 2.01 0 0 0-.283-.66l.005.007c-.13-.201-.281-.333-.453-.397-.457.25-.789.728-.995 1.435-.201.698-.237 1.32-.108 1.865s.345.853.646.924c.486-.22.836-.669 1.049-1.347.219-.687.265-1.296.139-1.827zm-2.772.755c.117-.611.332-1.14.644-1.588.318-.456.686-.734 1.104-.833.425-.1.822-.003 1.191.291.367.287.612.689.734 1.206.121.509.121 1.063.001 1.66a3.786 3.786 0 0 1-.722 1.58l.006-.008c-.35.449-.769.731-1.258.846-.361.085-.701-.01-1.021-.286s-.54-.669-.661-1.179c-.122-.516-.129-1.079-.019-1.688zm7.585-1.891a2.01 2.01 0 0 0-.283-.66l.005.008c-.13-.201-.281-.333-.453-.397-.457.25-.789.728-.995 1.434-.201.698-.237 1.32-.108 1.865s.345.853.646.925c.486-.22.836-.669 1.049-1.347.219-.687.265-1.296.139-1.827zm-2.771.754c.117-.611.332-1.14.644-1.587.318-.457.686-.734 1.104-.833.425-.1.822-.003 1.191.291.367.287.612.69.734 1.207.121.509.121 1.063.001 1.66a3.762 3.762 0 0 1-.722 1.58l.006-.008c-.35.449-.769.731-1.258.846-.361.085-.701-.01-1.021-.286s-.54-.669-.661-1.179c-.122-.517-.129-1.079-.019-1.689zm7.791-6.987c.113-.026.276.047.489.222.219.165.35.339.394.524s.079.728.107 1.635c.026.899.031 1.835.016 2.811-.019 2.189-.111 3.302-.274 3.34-.099.023-.223-.011-.372-.103-.144-.1-.226-.197-.248-.289s-.041-.282-.056-.57c-.526.872-1.048 1.369-1.565 1.491-.312.074-.629-.001-.951-.224-.315-.225-.508-.489-.581-.794-.104-.439-.11-.987-.019-1.644a5.585 5.585 0 0 1 .652-1.929l-.015.028c.329-.601.745-.961 1.247-1.079s.925.099 1.266.654c.005-1.586-.078-2.819-.248-3.699-.05-.212.002-.337.158-.373zm.067 5.492c-.09-.383-.234-.689-.431-.919-.189-.232-.376-.326-.56-.282-.304.072-.572.333-.801.784a4.555 4.555 0 0 0-.455 1.452l-.003.024c-.07.525-.063.964.021 1.318.03.127.1.22.211.275a.497.497 0 0 0 .361.038l-.004.001c.276-.065.601-.351.974-.858a3.56 3.56 0 0 0 .698-1.646l.001-.135-.013-.053zm6.783-.637c.137.581-.009 1.131-.439 1.651-.432.513-.988.85-1.667 1.01-.673.159-1.27.117-1.791-.126-.523-.251-.822-.531-.895-.843-.05-.212-.012-.334.115-.364.113-.026.376.091.791.352.156.09.353.163.59.22.245.055.488.053.728-.004a2.382 2.382 0 0 0 1.227-.693c.329-.347.458-.669.388-.966-.046-.191-.231-.405-.557-.643a7.381 7.381 0 0 0-1.006-.619l-.043-.02a8.218 8.218 0 0 1-1.065-.677l.021.015c-.327-.245-.511-.455-.553-.632a1.68 1.68 0 0 1-.027-.597l-.001.009c.024-.215.068-.378.131-.491.205-.37.567-.75 1.087-1.142.527-.394.989-.637 1.387-.731.205-.049.394-.023.568.078s.278.226.314.375c.016.07-.045.144-.183.222s-.352.188-.64.331a5.273 5.273 0 0 0-.741.422c-.74.504-1.077.901-1.008 1.192.037.156.554.493 1.552 1.013.384.201.747.456 1.09.764.348.299.557.597.627.895zm2.44.534c.031.134.125.183.281.146.27-.063.577-.215.925-.454.353-.248.55-.376.592-.386.127-.03.207.022.239.157.049.205-.107.493-.469.862-.354.368-.705.592-1.052.674-.34.08-.645.055-.915-.075-.272-.138-.431-.306-.478-.504s-.064-.46-.051-.784c.011-.331.035-.767.072-1.306.043-.548.07-1 .083-1.355-.315.157-.528.248-.642.275s-.24-.003-.38-.09c-.135-.095-.215-.196-.24-.302-.041-.17.381-.442 1.265-.815a7.714 7.714 0 0 0-.179-1.606c-.05-.212-.004-.335.137-.369.12-.028.288.014.502.129.212.107.341.256.387.447s.065.542.058 1.052c.395-.131.713-.225.954-.282.425-.1.659-.058.703.126.025.107-.07.223-.287.348-.21.125-.665.348-1.367.671-.016.594-.052 1.28-.107 2.056-.057.769-.067 1.23-.03 1.387zm4.747-5.562c.319-.075.651.019.998.28.344.255.548.514.61.776.06.255.034.538-.079.849.11.086.174.168.193.246.047.198.082.549.104 1.052.029.502.051.829.065.983.021.152.035.276.043.371.006.088.009.178.008.267.013.184-.029.287-.129.311-.127.03-.26-.055-.397-.254a3.181 3.181 0 0 1-.345-.839c-.44.949-.93 1.487-1.468 1.614-.326.077-.68.014-1.065-.186-.378-.21-.603-.463-.674-.76-.1-.425-.069-.985.095-1.682.162-.704.433-1.358.813-1.964s.789-.96 1.229-1.064zm.932 1.754c-.156-.659-.365-.956-.627-.895-.276.065-.552.339-.826.823a5.88 5.88 0 0 0-.62 1.548c-.138.556-.172.979-.103 1.269a.373.373 0 0 0 .217.261l.002.001a.596.596 0 0 0 .38.023l-.004.001c.333-.079.655-.39.968-.935.311-.552.471-1.17.481-1.852-.004-.111.041-.19.136-.234l-.002-.011z"/><path fill="#bbf330" style="fill:var(--color4,#bbf330)" d="M33.158 19.973a.92.92 0 0 0-.644.602c-1.911 5.65-7.263 9.719-13.571 9.719h-.022a14.238 14.238 0 0 1-9.851-3.94l.006.006a.914.914 0 0 0-.853-.231l.006-.001c-.641.158-.883.934-.408 1.392a15.932 15.932 0 0 0 11.099 4.481h.025-.001c7.096 0 13.116-4.605 15.224-10.986.207-.626-.369-1.198-1.009-1.041zM4.187 14.15a.91.91 0 0 0 .666-.719l.001-.005c1.213-6.664 7.058-11.72 14.089-11.72 4.571 0 8.641 2.138 11.263 5.464.22.279.58.414.925.328.585-.144.85-.824.48-1.3A16.01 16.01 0 0 0 18.943 0C11.04 0 4.473 5.711 3.157 13.224c-.104.593.446 1.07 1.03.926z"/><path fill="#bbf330" style="fill:var(--color4,#bbf330);stroke:var(--color4,#bbf330)" stroke="#bbf330" stroke-linejoin="round" stroke-width=".627" d="M43.041 5.331c-3.787 7.241-5.45 2.465-10.782 5.271.533-8.405 6.18-3.291 10.782-5.271z"/></symbol><symbol id="icon-menu" viewBox="0 0 32 32"><path fill="#7eb101" style="fill:var(--color1,#7eb101)" d="M2.666 8c0-.737.597-1.334 1.334-1.334h24a1.334 1.334 0 1 1 0 2.668H4A1.334 1.334 0 0 1 2.666 8zm0 8.042A1.335 1.335 0 0 1 4 14.709h24l.039-.001a1.334 1.334 0 1 1 0 2.668l-.041-.001H28 4a1.334 1.334 0 0 1-1.334-1.334zM4 22.752a1.334 1.334 0 0 0-.002 2.666H28l.039.001a1.334 1.334 0 1 0 0-2.668l-.041.001H28 4z"/></symbol><symbol id="icon-star" viewBox="0 0 36 32"><path fill="#ffe550" style="fill:var(--color5,#ffe550)" d="M17.158 1.038c.592-1.384 2.61-1.384 3.202 0l3.5 8.162c.248.582.814.98 1.462 1.032l9.08.706c1.538.12 2.16 1.982.99 2.958l-6.918 5.752a1.655 1.655 0 0 0-.557 1.682l-.002-.011 2.114 8.6c.36 1.456-1.274 2.608-2.592 1.828l-7.772-4.61c-.259-.155-.571-.247-.905-.247s-.646.092-.913.252l.008-.005-7.772 4.61c-1.318.78-2.95-.372-2.592-1.828l2.112-8.6a1.65 1.65 0 0 0-.555-1.667l-.003-.002-6.918-5.75c-1.172-.976-.548-2.84.99-2.96l9.08-.704a1.736 1.736 0 0 0 1.46-1.023l.004-.011 3.498-8.162z"/></symbol><symbol id="icon-warning" viewBox="0 0 32 32"><path fill="none" stroke="#ff705d" style="stroke:var(--color1,#ff705d)" stroke-linejoin="round" stroke-linecap="round" stroke-width="2.285" d="M16 11.429v6.856m0 8a1.144 1.144 0 1 0-.003-2.286H16a1.144 1.144 0 0 0-.003 2.286H16z"/><path fill="none" stroke="#ff705d" style="stroke:var(--color1,#ff705d)" stroke-linejoin="round" stroke-linecap="round" stroke-width="2.285" d="M18.035 2.4a2.284 2.284 0 0 0-4.06-.012l-.006.013L1.396 27.542a2.285 2.285 0 0 0 2.034 3.314h25.144a2.285 2.285 0 0 0 2.028-3.325l.006.013L18.035 2.397z"/></symbol><symbol id="icon-cross" viewBox="0 0 32 32"><path d="M31.708 25.708 22 16l9.708-9.708a1 1 0 0 0 0-1.414L27.122.292a1 1 0 0 0-1.414-.001L16 9.999 6.292.291a.998.998 0 0 0-1.414.001L.292 4.878a1 1 0 0 0 0 1.414L10 16 .292 25.708a.999.999 0 0 0 0 1.414l4.586 4.586a1 1 0 0 0 1.414 0L16 22l9.708 9.708a1 1 0 0 0 1.414 0l4.586-4.586a.999.999 0 0 0 0-1.414z"/></symbol></defs></svg>