<svg aria-hidden="true" style="position: absolute; width: 0; height: 0; overflow: hidden;" version="1.1" xmlns="http://www.w3.org/2000/svg" xmlns:xlink="http://www.w3.org/1999/xlink">
<defs>
<symbol id="icon-deliv" viewBox="0 0 32 32">
<path fill="#7eb101" style="fill: var(--color1, #7eb101)" d="M7.233 13.633l3.534 1.5c0.4-0.8 0.827-1.588 1.283-2.366s0.939-1.522 1.45-2.234l-2.633-0.533-3.634 3.633zM12.367 16.333l4.433 4.434c1.383-0.632 2.553-1.289 3.663-2.027l-0.096 0.060c1.11-0.733 2.010-1.444 2.7-2.133 1.8-1.8 3.122-3.645 3.966-5.534s1.3-4.022 1.367-6.4c-2.378 0.067-4.511 0.523-6.4 1.367s-3.733 2.167-5.533 3.967c-0.69 0.689-1.4 1.589-2.134 2.7-0.678 1.014-1.334 2.183-1.899 3.404l-0.067 0.162zM20 13.133c-0.444-0.444-0.667-0.994-0.667-1.65 0-0.655 0.223-1.205 0.667-1.65s0.994-0.666 1.65-0.666 1.206 0.222 1.65 0.666c0.444 0.445 0.667 0.995 0.667 1.65s-0.223 1.206-0.667 1.65c-0.444 0.445-0.994 0.667-1.65 0.667s-1.206-0.222-1.65-0.667zM19.5 25.9l3.633-3.633-0.533-2.634c-0.711 0.512-1.456 0.995-2.233 1.45-0.778 0.456-1.567 0.884-2.367 1.284l1.5 3.533zM30.367 2.767c0.2 3.022-0.178 5.777-1.134 8.266-0.955 2.49-2.533 4.834-4.733 7.034l-0.067 0.066-0.066 0.067 0.733 3.667c0.067 0.333 0.050 0.655-0.050 0.966-0.1 0.312-0.272 0.59-0.517 0.834l-5.7 5.733-2.833-6.6-5.667-5.667-6.6-2.833 5.734-5.7c0.244-0.244 0.522-0.417 0.833-0.517s0.633-0.116 0.967-0.050l3.666 0.734c0.019-0.020 0.041-0.036 0.066-0.049l0.001-0.001c0.026-0.014 0.048-0.030 0.067-0.050l0-0c2.2-2.2 4.544-3.784 7.033-4.75s5.244-1.35 8.267-1.15zM5.967 21.167c0.777-0.778 1.727-1.173 2.85-1.184 1.122-0.010 2.072 0.373 2.85 1.15 0.777 0.778 1.16 1.728 1.15 2.85-0.011 1.123-0.406 2.073-1.184 2.85-0.577 0.578-1.472 1.056-2.683 1.434s-3.028 0.733-5.45 1.066c0.333-2.422 0.683-4.244 1.050-5.466s0.839-2.123 1.417-2.7zM7.367 22.6c-0.311 0.333-0.59 0.856-0.834 1.567s-0.455 1.622-0.633 2.733c1.111-0.178 2.022-0.389 2.733-0.633 0.711-0.245 1.234-0.523 1.567-0.834 0.422-0.377 0.639-0.85 0.65-1.416 0.001-0.018 0.001-0.040 0.001-0.061 0-0.555-0.223-1.057-0.584-1.423l0 0c-0.366-0.361-0.869-0.584-1.423-0.584-0.021 0-0.043 0-0.064 0.001l0.003-0c-0.565 0.001-1.071 0.252-1.414 0.648l-0.002 0.002z"></path>
</symbol>
<symbol id="icon-order" viewBox="0 0 32 32">
<path fill="#7eb101" style="fill: var(--color1, #7eb101)" d="M15.5 1.333c2.023 0 3.75 0.706 5.184 2.117 1.433 1.411 2.15 3.128 2.15 5.15 0 1.156-0.25 2.244-0.75 3.267-0.515 1.040-1.229 1.91-2.1 2.588l-0.017 0.012h-1.133v-1.667c0.627-0.495 1.128-1.12 1.47-1.836l0.013-0.031c0.326-0.677 0.517-1.471 0.517-2.31 0-0.008-0-0.016-0-0.024v0.001c0-1.467-0.523-2.711-1.567-3.733s-2.3-1.534-3.767-1.534c-1.466 0-2.722 0.511-3.766 1.534s-1.567 2.266-1.567 3.733c0 0.822 0.172 1.6 0.517 2.333 0.355 0.747 0.856 1.372 1.472 1.859l0.011 0.008v2.4c-1.227-0.632-2.223-1.564-2.915-2.701l-0.018-0.032c-0.67-1.086-1.067-2.403-1.067-3.812 0-0.019 0-0.039 0-0.058l-0 0.003c0-2.022 0.717-3.739 2.15-5.15s3.161-2.117 5.183-2.117zM14.234 29.333c-0.378 0-0.734-0.072-1.067-0.216-0.337-0.145-0.624-0.342-0.867-0.584l-6.866-6.866 1.866-1.934c0.311-0.31 0.661-0.55 1.050-0.716 0.214-0.095 0.464-0.151 0.727-0.151 0.174 0 0.343 0.024 0.503 0.070l-0.013-0.003 2.6 0.6v-10.866c0-0.934 0.322-1.723 0.967-2.367 0.644-0.644 1.433-0.967 2.366-0.967 0.934 0 1.723 0.323 2.367 0.967s0.967 1.433 0.967 2.367v5.733h0.866c0.111 0 0.211 0.022 0.3 0.067s0.19 0.088 0.3 0.133l4.934 2.4c0.533 0.244 0.927 0.639 1.183 1.183 0.255 0.545 0.328 1.106 0.217 1.684l-1.2 7.266c-0.106 0.647-0.446 1.2-0.929 1.58l-0.005 0.004c-0.462 0.383-1.061 0.616-1.714 0.616-0.007 0-0.013-0-0.020-0h-8.532zM13.967 27.333h9.367l1.433-8.3-6.1-3.033h-1.833v-7.333c0-0.4-0.123-0.723-0.367-0.967s-0.567-0.367-0.967-0.367-0.722 0.123-0.966 0.367c-0.245 0.244-0.367 0.567-0.367 0.967v13.3l-5.133-1.1-0.767 0.766 5.7 5.7zM23.334 27.333v0z"></path>
</symbol>
<symbol id="icon-arrow-left" viewBox="0 0 18 32">
<path d="M17.653 15.035l-14.862-14.16c-0.239-0.228-0.563-0.368-0.92-0.368s-0.681 0.14-0.921 0.369l0.001-0-0.016 0.016c-0.235 0.224-0.382 0.539-0.382 0.889s0.146 0.665 0.381 0.889l0 0 13.995 13.333-13.995 13.328c-0.236 0.224-0.383 0.54-0.383 0.89s0.147 0.666 0.382 0.889l0.001 0 0.016 0.016c0.239 0.228 0.563 0.368 0.92 0.368s0.681-0.14 0.921-0.369l-0.001 0 14.862-14.16c0.255-0.243 0.413-0.586 0.413-0.965s-0.158-0.722-0.413-0.965l-0-0z"></path>
</symbol>
<symbol id="icon-arrow-right" viewBox="0 0 18 32">
<path d="M0.48 16.965l14.862 14.16c0.239 0.228 0.563 0.368 0.92 0.368s0.681-0.14 0.921-0.369l-0.001 0 0.016-0.016c0.236-0.224 0.382-0.54 0.382-0.89s-0.147-0.666-0.382-0.889l-0.001-0-13.995-13.333 13.995-13.327c0.236-0.224 0.382-0.54 0.382-0.89s-0.147-0.666-0.382-0.889l-0.001-0-0.016-0.016c-0.239-0.228-0.563-0.368-0.92-0.368s-0.681 0.14-0.921 0.369l0.001-0-14.862 14.16c-0.255 0.243-0.413 0.586-0.413 0.965s0.158 0.722 0.413 0.965l0.001 0z"></path>
</symbol>
<symbol id="icon-logo" viewBox="0 0 44 32">
<path fill="#ffe553" style="fill: var(--color2, #ffe553)" d="M16.496 6.456c1.013-1.983 3.846-1.983 4.859 0l1.283 2.51c0.397 0.764 1.123 1.309 1.986 1.45l0.016 0.002 2.78 0.442c2.202 0.35 3.079 3.049 1.502 4.624l-1.985 1.984c-0.494 0.494-0.799 1.176-0.799 1.93 0 0.151 0.012 0.298 0.036 0.442l-0.002-0.016 0.437 2.772c0.348 2.2-1.945 3.868-3.931 2.859l-2.517-1.279c-0.36-0.186-0.785-0.296-1.236-0.296s-0.876 0.109-1.251 0.303l0.015-0.007-2.517 1.279c-1.986 1.008-4.279-0.659-3.932-2.859l0.438-2.772c0.021-0.128 0.034-0.276 0.034-0.427 0-0.753-0.305-1.436-0.799-1.929l-1.984-1.983c-1.577-1.576-0.7-4.275 1.502-4.625l2.78-0.442c0.878-0.143 1.605-0.689 1.994-1.438l0.007-0.015 1.283-2.51z"></path>
<path fill="#2c2c2c" style="fill: var(--color3, #2c2c2c)" d="M3.476 20.533l-0.022 0.005c0.002 0.074-0.001 0.374-0.011 0.9-0.003 0.524-0.004 0.868-0.002 1.032 0 0.157-0.003 0.285-0.010 0.384l0.001 0.336c0 0.001 0 0.003 0 0.005 0 0.103-0.007 0.204-0.020 0.303l0.001-0.012-0.019 0.207c-0.014 0.13-0.043 0.2-0.085 0.21-0.092 0.022-0.236-0.049-0.432-0.212-0.198-0.171-0.311-0.319-0.341-0.447s-0.038-1.060-0.024-2.798c0.021-1.739-0.026-2.884-0.141-3.432-0.011-0.035-0.017-0.075-0.017-0.116 0-0.056 0.011-0.11 0.031-0.159l-0.001 0.003c0.036-0.166 0.22-0.321 0.551-0.467 0.339-0.147 0.845-0.301 1.518-0.459 0.68-0.161 1.219-0.251 1.619-0.27 0.406-0.021 0.624 0.031 0.654 0.159 0.020 0.085-0.026 0.159-0.138 0.223-0.068 0.041-0.166 0.094-0.265 0.145l-0.033 0.015c-0.088 0.036-0.205 0.082-0.348 0.138-0.327 0.105-0.461 0.152-0.595 0.201l0.19-0.061c-0.125 0.038-0.289 0.091-0.489 0.161-0.193 0.068-0.372 0.132-0.537 0.195-0.166 0.054-0.391 0.133-0.673 0.237s-0.464 0.169-0.548 0.196c0.012 0.019 0.023 0.050 0.033 0.093 0.078 0.333 0.122 1.13 0.129 2.392 0.553-0.106 1.025-0.233 1.483-0.389l-0.077 0.023c0.499-0.163 0.806-0.257 0.92-0.284 0.269-0.063 0.417-0.039 0.444 0.075 0.052 0.22-0.212 0.476-0.793 0.77-0.574 0.292-1.225 0.525-1.955 0.696zM10.411 18.582c-0.058-0.247-0.154-0.466-0.283-0.66l0.005 0.007c-0.13-0.201-0.281-0.333-0.453-0.397-0.457 0.25-0.789 0.728-0.995 1.435-0.201 0.698-0.237 1.32-0.108 1.865s0.345 0.853 0.646 0.924c0.486-0.22 0.836-0.669 1.049-1.347 0.219-0.687 0.265-1.296 0.139-1.827zM7.639 19.337c0.117-0.611 0.332-1.14 0.644-1.588 0.318-0.456 0.686-0.734 1.104-0.833 0.425-0.1 0.822-0.003 1.191 0.291 0.367 0.287 0.612 0.689 0.734 1.206 0.121 0.509 0.121 1.063 0.001 1.66-0.123 0.602-0.373 1.131-0.722 1.58l0.006-0.008c-0.35 0.449-0.769 0.731-1.258 0.846-0.361 0.085-0.701-0.010-1.021-0.286s-0.54-0.669-0.661-1.179c-0.122-0.516-0.129-1.079-0.019-1.688zM15.224 17.446c-0.058-0.247-0.154-0.466-0.283-0.66l0.005 0.008c-0.13-0.201-0.281-0.333-0.453-0.397-0.457 0.25-0.789 0.728-0.995 1.434-0.201 0.698-0.237 1.32-0.108 1.865s0.345 0.853 0.646 0.925c0.486-0.22 0.836-0.669 1.049-1.347 0.219-0.687 0.265-1.296 0.139-1.827zM12.453 18.2c0.117-0.611 0.332-1.14 0.644-1.587 0.318-0.457 0.686-0.734 1.104-0.833 0.425-0.1 0.822-0.003 1.191 0.291 0.367 0.287 0.612 0.69 0.734 1.207 0.121 0.509 0.121 1.063 0.001 1.66-0.122 0.602-0.372 1.131-0.722 1.58l0.006-0.008c-0.35 0.449-0.769 0.731-1.258 0.846-0.361 0.085-0.701-0.010-1.021-0.286s-0.54-0.669-0.661-1.179c-0.122-0.517-0.129-1.079-0.019-1.689zM20.244 11.213c0.113-0.026 0.276 0.047 0.489 0.222 0.219 0.165 0.35 0.339 0.394 0.524s0.079 0.728 0.107 1.635c0.026 0.899 0.031 1.835 0.016 2.811-0.019 2.189-0.111 3.302-0.274 3.34-0.099 0.023-0.223-0.011-0.372-0.103-0.144-0.1-0.226-0.197-0.248-0.289s-0.041-0.282-0.056-0.57c-0.526 0.872-1.048 1.369-1.565 1.491-0.312 0.074-0.629-0.001-0.951-0.224-0.315-0.225-0.508-0.489-0.581-0.794-0.104-0.439-0.11-0.987-0.019-1.644 0.105-0.711 0.329-1.352 0.652-1.929l-0.015 0.028c0.329-0.601 0.745-0.961 1.247-1.079s0.925 0.099 1.266 0.654c0.005-1.586-0.078-2.819-0.248-3.699-0.050-0.212 0.002-0.337 0.158-0.373zM20.311 16.705c-0.090-0.383-0.234-0.689-0.431-0.919-0.189-0.232-0.376-0.326-0.56-0.282-0.304 0.072-0.572 0.333-0.801 0.784-0.221 0.428-0.382 0.926-0.455 1.452l-0.003 0.024c-0.070 0.525-0.063 0.964 0.021 1.318 0.030 0.127 0.1 0.22 0.211 0.275 0.067 0.035 0.146 0.055 0.23 0.055 0.045 0 0.089-0.006 0.131-0.017l-0.004 0.001c0.276-0.065 0.601-0.351 0.974-0.858 0.381-0.508 0.613-1.057 0.698-1.646l0.001-0.135-0.013-0.053zM27.094 16.068c0.137 0.581-0.009 1.131-0.439 1.651-0.432 0.513-0.988 0.85-1.667 1.010-0.673 0.159-1.27 0.117-1.791-0.126-0.523-0.251-0.822-0.531-0.895-0.843-0.050-0.212-0.012-0.334 0.115-0.364 0.113-0.026 0.376 0.091 0.791 0.352 0.156 0.090 0.353 0.163 0.59 0.22 0.245 0.055 0.488 0.053 0.728-0.004 0.496-0.117 0.905-0.348 1.227-0.693 0.329-0.347 0.458-0.669 0.388-0.966-0.046-0.191-0.231-0.405-0.557-0.643-0.303-0.223-0.646-0.435-1.006-0.619l-0.043-0.020c-0.401-0.215-0.742-0.435-1.065-0.677l0.021 0.015c-0.327-0.245-0.511-0.455-0.553-0.632-0.026-0.112-0.041-0.241-0.041-0.374 0-0.076 0.005-0.15 0.014-0.223l-0.001 0.009c0.024-0.215 0.068-0.378 0.131-0.491 0.205-0.37 0.567-0.75 1.087-1.142 0.527-0.394 0.989-0.637 1.387-0.731 0.205-0.049 0.394-0.023 0.568 0.078s0.278 0.226 0.314 0.375c0.016 0.070-0.045 0.144-0.183 0.222s-0.352 0.188-0.64 0.331c-0.282 0.134-0.529 0.275-0.741 0.422-0.74 0.504-1.077 0.901-1.008 1.192 0.037 0.156 0.554 0.493 1.552 1.013 0.384 0.201 0.747 0.456 1.090 0.764 0.348 0.299 0.557 0.597 0.627 0.895zM29.534 16.602c0.031 0.134 0.125 0.183 0.281 0.146 0.27-0.063 0.577-0.215 0.925-0.454 0.353-0.248 0.55-0.376 0.592-0.386 0.127-0.030 0.207 0.022 0.239 0.157 0.049 0.205-0.107 0.493-0.469 0.862-0.354 0.368-0.705 0.592-1.052 0.674-0.34 0.080-0.645 0.055-0.915-0.075-0.272-0.138-0.431-0.306-0.478-0.504s-0.064-0.46-0.051-0.784c0.011-0.331 0.035-0.767 0.072-1.306 0.043-0.548 0.070-1 0.083-1.355-0.315 0.157-0.528 0.248-0.642 0.275s-0.24-0.003-0.38-0.090c-0.135-0.095-0.215-0.196-0.24-0.302-0.041-0.17 0.381-0.442 1.265-0.815-0.012-0.617-0.072-1.153-0.179-1.606-0.050-0.212-0.004-0.335 0.137-0.369 0.12-0.028 0.288 0.014 0.502 0.129 0.212 0.107 0.341 0.256 0.387 0.447s0.065 0.542 0.058 1.052c0.395-0.131 0.713-0.225 0.954-0.282 0.425-0.1 0.659-0.058 0.703 0.126 0.025 0.107-0.070 0.223-0.287 0.348-0.21 0.125-0.665 0.348-1.367 0.671-0.016 0.594-0.052 1.28-0.107 2.056-0.057 0.769-0.067 1.23-0.030 1.387zM34.281 11.040c0.319-0.075 0.651 0.019 0.998 0.28 0.344 0.255 0.548 0.514 0.61 0.776 0.060 0.255 0.034 0.538-0.079 0.849 0.11 0.086 0.174 0.168 0.193 0.246 0.047 0.198 0.082 0.549 0.104 1.052 0.029 0.502 0.051 0.829 0.065 0.983 0.021 0.152 0.035 0.276 0.043 0.371 0.006 0.088 0.009 0.178 0.008 0.267 0.013 0.184-0.029 0.287-0.129 0.311-0.127 0.030-0.26-0.055-0.397-0.254-0.132-0.208-0.247-0.488-0.345-0.839-0.44 0.949-0.93 1.487-1.468 1.614-0.326 0.077-0.68 0.014-1.065-0.186-0.378-0.21-0.603-0.463-0.674-0.76-0.1-0.425-0.069-0.985 0.095-1.682 0.162-0.704 0.433-1.358 0.813-1.964s0.789-0.96 1.229-1.064zM35.213 12.794c-0.156-0.659-0.365-0.956-0.627-0.895-0.276 0.065-0.552 0.339-0.826 0.823-0.276 0.476-0.483 0.993-0.62 1.548-0.138 0.556-0.172 0.979-0.103 1.269 0.027 0.119 0.109 0.215 0.217 0.261l0.002 0.001c0.066 0.027 0.143 0.043 0.224 0.043 0.054 0 0.106-0.007 0.156-0.020l-0.004 0.001c0.333-0.079 0.655-0.39 0.968-0.935 0.311-0.552 0.471-1.17 0.481-1.852-0.004-0.111 0.041-0.19 0.136-0.234l-0.002-0.011z"></path>
<path fill="#bbf330" style="fill: var(--color4, #bbf330)" d="M33.158 19.973c-0.304 0.075-0.543 0.306-0.644 0.602-1.911 5.65-7.263 9.719-13.571 9.719-0.007 0-0.014 0-0.022 0-3.819 0-7.288-1.499-9.851-3.94l0.006 0.006c-0.165-0.159-0.389-0.257-0.636-0.257-0.075 0-0.148 0.009-0.217 0.026l0.006-0.001c-0.641 0.158-0.883 0.934-0.408 1.392 2.871 2.772 6.786 4.481 11.099 4.481 0.008 0 0.016 0 0.025-0h-0.001c7.096 0 13.116-4.605 15.224-10.986 0.207-0.626-0.369-1.198-1.009-1.041zM4.187 14.15c0.344-0.091 0.605-0.371 0.666-0.719l0.001-0.005c1.213-6.664 7.058-11.72 14.089-11.72 4.571 0 8.641 2.138 11.263 5.464 0.22 0.279 0.58 0.414 0.925 0.328 0.585-0.144 0.85-0.824 0.48-1.3-2.932-3.771-7.516-6.198-12.668-6.198-7.903 0-14.47 5.711-15.786 13.224-0.104 0.593 0.446 1.070 1.030 0.926z"></path>
<path fill="#bbf330" style="fill: var(--color4, #bbf330); stroke: var(--color4, #bbf330)" stroke="#bbf330" stroke-linejoin="round" stroke-linecap="butt" stroke-miterlimit="4" stroke-width="0.6275" d="M43.041 5.331c-3.787 7.241-5.45 2.465-10.782 5.271 0.533-8.405 6.18-3.291 10.782-5.271z"></path>
</symbol>
<symbol id="icon-menu" viewBox="0 0 32 32">
<path fill="#7eb101" style="fill: var(--color1, #7eb101)" d="M2.666 8c0-0.737 0.597-1.334 1.334-1.334v0h24c0.737 0 1.334 0.597 1.334 1.334s-0.597 1.334-1.334 1.334h-24c-0.737 0-1.334-0.597-1.334-1.334v0zM2.666 16.042c0.001-0.736 0.598-1.333 1.334-1.333 0 0 0 0 0 0h24c0.012-0 0.025-0.001 0.039-0.001 0.737 0 1.334 0.597 1.334 1.334s-0.597 1.334-1.334 1.334c-0.014 0-0.027-0-0.041-0.001l0.002 0h-24c-0.737 0-1.334-0.597-1.334-1.334v0zM4 22.752c-0.72 0.022-1.295 0.61-1.295 1.333s0.575 1.311 1.293 1.333l0.002 0h24c0.012 0 0.025 0.001 0.039 0.001 0.737 0 1.334-0.597 1.334-1.334s-0.597-1.334-1.334-1.334c-0.014 0-0.027 0-0.041 0.001l0.002-0h-24z"></path>
</symbol>
<symbol id="icon-star" viewBox="0 0 36 32">
<path fill="#ffe550" style="fill: var(--color5, #ffe550)" d="M17.158 1.038c0.592-1.384 2.61-1.384 3.202 0l3.5 8.162c0.248 0.582 0.814 0.98 1.462 1.032l9.080 0.706c1.538 0.12 2.16 1.982 0.99 2.958l-6.918 5.752c-0.371 0.306-0.606 0.766-0.606 1.281 0 0.138 0.017 0.272 0.049 0.401l-0.002-0.011 2.114 8.6c0.36 1.456-1.274 2.608-2.592 1.828l-7.772-4.61c-0.259-0.155-0.571-0.247-0.905-0.247s-0.646 0.092-0.913 0.252l0.008-0.005-7.772 4.61c-1.318 0.78-2.95-0.372-2.592-1.828l2.112-8.6c0.030-0.117 0.047-0.252 0.047-0.39 0-0.514-0.234-0.974-0.602-1.277l-0.003-0.002-6.918-5.75c-1.172-0.976-0.548-2.84 0.99-2.96l9.080-0.704c0.656-0.048 1.206-0.455 1.46-1.023l0.004-0.011 3.498-8.162z"></path>
</symbol>
</defs>
</svg>
